<svg width="209.000000" height="26.000000" viewBox="0 0 209 26" fill="none" xmlns="http://www.w3.org/2000/svg" xmlns:xlink="http://www.w3.org/1999/xlink">
	<desc>
			Created with Pixso.
	</desc>
	<defs/>
	<path id="Vector" d="M26.27 4.07C27.99 6.03 28.61 8.95 28.24 13.26C27.84 17.84 26.82 20.68 24.9 22.48C22.84 24.42 19.53 25.32 14.5 25.32C9.46 25.32 6.15 24.42 4.1 22.48C2.18 20.68 1.15 17.84 0.75 13.26C0.38 8.94 1.01 6.06 2.73 4.07C4.76 1.78 8.48 0.66 14.5 0.66C20.52 0.66 24.24 1.78 26.27 4.07ZM14.5 0C2.49 0 -0.67 4.48 0.1 13.31C0.87 22.15 3.99 26 14.5 26C25 26 28.12 22.15 28.89 13.35C29.66 4.55 26.5 0.03 14.5 0.03L14.5 0Z" fill="#0B457F" fill-opacity="1.000000" fill-rule="nonzero"/>
	<path id="Vector" d="M14.5 1.5C3.78 1.5 0.9 5.44 1.59 13.28C2.29 21.13 5.09 24.5 14.5 24.5C23.9 24.5 26.7 21.11 27.4 13.28C28.09 5.46 25.21 1.5 14.5 1.5ZM19.91 3.29C17.81 8.63 15.5 13.55 14.75 15.18C14.73 15.23 14.69 15.27 14.65 15.3C14.6 15.33 14.55 15.35 14.5 15.35C14.44 15.35 14.39 15.33 14.34 15.3C14.3 15.27 14.26 15.23 14.24 15.18C13.47 13.6 11.15 8.63 9.08 3.29C9.08 3.28 9.07 3.26 9.08 3.25C9.08 3.23 9.08 3.21 9.09 3.2C9.1 3.18 9.11 3.17 9.12 3.16C9.13 3.15 9.15 3.14 9.16 3.14C12.69 2.52 16.29 2.52 19.82 3.14C19.84 3.14 19.85 3.15 19.87 3.16C19.88 3.17 19.89 3.18 19.9 3.2C19.91 3.21 19.91 3.23 19.91 3.24C19.91 3.26 19.91 3.28 19.91 3.29ZM2.74 13.16C2.42 9.52 2.93 7.09 4.35 5.5C5.26 4.56 6.4 3.87 7.65 3.52C7.67 3.52 7.69 3.51 7.71 3.52C7.72 3.52 7.74 3.53 7.76 3.54C7.77 3.55 7.78 3.56 7.79 3.58C7.8 3.6 7.8 3.61 7.8 3.63L7.8 10.8C7.8 11.99 8.09 13.16 8.65 14.21L13.4 23.11C13.41 23.12 13.41 23.14 13.41 23.16C13.41 23.18 13.4 23.2 13.39 23.22C13.38 23.24 13.37 23.25 13.35 23.26C13.34 23.27 13.32 23.28 13.3 23.28C9.59 23.15 7.11 22.39 5.57 20.91C4.02 19.44 3.11 17.03 2.76 13.15L2.74 13.16ZM26.27 13.15C25.93 17.03 25.06 19.46 23.47 20.91C21.88 22.36 19.42 23.13 15.74 23.28C15.72 23.28 15.7 23.28 15.68 23.27C15.66 23.26 15.65 23.25 15.63 23.23C15.62 23.21 15.62 23.19 15.62 23.17C15.62 23.15 15.62 23.13 15.63 23.11L20.39 14.21C20.94 13.16 21.24 11.99 21.24 10.8L21.24 3.63C21.23 3.61 21.24 3.6 21.25 3.58C21.25 3.56 21.27 3.55 21.28 3.54C21.29 3.53 21.31 3.52 21.33 3.52C21.35 3.51 21.37 3.52 21.38 3.52C22.63 3.88 23.77 4.56 24.68 5.5C26.11 7.08 26.62 9.52 26.29 13.16L26.27 13.15Z" fill="#0B457F" fill-opacity="1.000000" fill-rule="nonzero"/>
	<path id="Vector" d="M43.58 18C39.45 18 37 16.61 37 12.41C37 8.59 39.45 7 43.68 7L48.96 7L48.96 9.84L43.97 9.84C42 9.84 41.36 10.4 41.36 12.41C41.36 14.62 42 15.15 44.07 15.15L49 15.15L49 18L43.58 18Z" fill="#0B457F" fill-opacity="1.000000" fill-rule="nonzero"/>
	<path id="Vector" d="M65 7L65 18L60.81 18L60.81 13.86L56.18 13.86L56.18 18L52 18L52 7L56.18 7L56.18 10.9L60.81 10.9L60.81 7L65 7Z" fill="#0B457F" fill-opacity="1.000000" fill-rule="nonzero"/>
	<path id="Vector" d="M67 18L71.43 7.01L75.12 7.01C75.45 6.96 75.79 7.03 76.08 7.2C76.37 7.38 76.6 7.65 76.71 7.97L81 18L76.66 18L73.9 11.23C73.71 10.74 73.43 10.74 73.24 11.23L70.51 18L67 18Z" fill="#0B457F" fill-opacity="1.000000" fill-rule="nonzero"/>
	<path id="Vector" d="M91.96 17.38L86.77 12.58C86.56 12.39 86.42 12.44 86.42 12.74L86.42 17.95L83 17.95L83 7L85.16 7C85.76 6.95 86.36 7.13 86.84 7.5L92.22 12.48C92.43 12.67 92.57 12.54 92.57 12.31L92.57 7L95.99 7L95.99 17.46C96 17.53 95.99 17.61 95.97 17.67C95.94 17.74 95.91 17.8 95.86 17.85C95.8 17.9 95.74 17.94 95.68 17.97C95.61 17.99 95.54 18 95.47 17.99L93.66 17.99C93.04 18.03 92.43 17.82 91.96 17.42L91.96 17.38Z" fill="#0B457F" fill-opacity="1.000000" fill-rule="nonzero"/>
	<path id="Vector" d="M111.48 17.99L105.39 17.99C101.17 17.99 99 16.6 99 12.39C99 8.64 101.21 7 105.49 7L111.99 7L111.99 9.83L105.66 9.83C103.64 9.83 103.11 10.34 103.11 12.39C103.11 14.67 103.64 15.22 105.75 15.22L108.12 15.22C108.16 15.22 108.19 15.21 108.23 15.2C108.26 15.19 108.3 15.17 108.32 15.14C108.35 15.11 108.37 15.08 108.38 15.04C108.39 15.01 108.4 14.97 108.4 14.93L108.4 13.98C108.4 13.94 108.39 13.9 108.38 13.87C108.37 13.83 108.35 13.8 108.32 13.77C108.29 13.74 108.26 13.72 108.23 13.71C108.19 13.7 108.16 13.69 108.12 13.69L106.21 13.69L106.21 11.33L111.48 11.33C111.55 11.32 111.62 11.33 111.68 11.35C111.75 11.38 111.81 11.41 111.86 11.46C111.91 11.52 111.95 11.58 111.97 11.64C111.99 11.71 112 11.78 111.99 11.85L111.99 17.46C112 17.54 111.99 17.61 111.97 17.67C111.95 17.74 111.91 17.8 111.86 17.85C111.81 17.9 111.75 17.94 111.68 17.97C111.62 17.99 111.55 18 111.48 17.99Z" fill="#0B457F" fill-opacity="1.000000" fill-rule="nonzero"/>
	<path id="Vector" d="M114 17.96L118.44 7.01L122.14 7.01C122.47 6.96 122.81 7.03 123.1 7.2C123.39 7.37 123.61 7.64 123.73 7.97L128 18L123.66 18L120.91 11.25C120.71 10.77 120.43 10.77 120.24 11.25L117.49 17.96L114 17.96Z" fill="#0B457F" fill-opacity="1.000000" fill-rule="nonzero"/>
	<path id="Vector" d="M139.95 17.38L134.77 12.58C134.56 12.39 134.42 12.44 134.42 12.74L134.42 17.95L131 17.95L131 7L133.16 7C133.76 6.95 134.36 7.13 134.84 7.5L140.22 12.48C140.42 12.67 140.57 12.54 140.57 12.31L140.57 7L143.99 7L143.99 17.46C144 17.53 143.99 17.61 143.97 17.67C143.94 17.74 143.9 17.8 143.85 17.85C143.8 17.9 143.74 17.94 143.67 17.97C143.6 17.99 143.53 18 143.46 17.99L141.7 17.99C141.08 18.03 140.47 17.82 139.99 17.42L139.95 17.38Z" fill="#0B457F" fill-opacity="1.000000" fill-rule="nonzero"/>
	<path id="Vector" d="M150 17.96L154.45 7.01L158.13 7.01C158.46 6.96 158.8 7.03 159.09 7.2C159.38 7.37 159.61 7.64 159.72 7.97L164 18L159.65 18L156.89 11.25C156.7 10.77 156.42 10.77 156.23 11.25L153.5 18L150 17.96Z" fill="#0B457F" fill-opacity="1.000000" fill-rule="nonzero"/>
	<path id="Vector" d="M178 7L178 13.12C178 16.95 175.41 18 171.5 18C167.58 18 165 16.95 165 13.12L165 7L169.14 7L169.14 12.61C169.14 14.76 170.32 15.26 171.84 15.26C173.35 15.26 174.53 14.76 174.53 12.61L174.53 7L178 7Z" fill="#0B457F" fill-opacity="1.000000" fill-rule="nonzero"/>
	<path id="Vector" d="M181 7L193 7L193 9.95L189 9.95L189 18L184.99 18L184.99 9.95L181 9.95L181 7Z" fill="#0B457F" fill-opacity="1.000000" fill-rule="nonzero"/>
	<path id="Vector" d="M209 12.98C209 17.2 206.5 19 201.5 19C196.49 19 194 17.2 194 12.98C194 8.76 196.58 7 201.5 7C206.41 7 209 8.74 209 12.98ZM198.32 12.98C198.32 15.21 199.12 16.09 201.52 16.09C203.92 16.09 204.72 15.21 204.72 12.98C204.72 10.75 203.92 9.9 201.52 9.9C199.12 9.9 198.32 10.71 198.32 12.98Z" fill="#0B457F" fill-opacity="1.000000" fill-rule="nonzero"/>
</svg>
