<svg width="35.000000" height="35.000000" viewBox="0 0 35 35" fill="none" xmlns="http://www.w3.org/2000/svg" xmlns:xlink="http://www.w3.org/1999/xlink">
	<desc>
			Created with Pixso.
	</desc>
	<defs>
		<clipPath id="clip2_6759">
			<rect id="MenuFilled" width="35.000000" height="35.000000" transform="translate(0.000000 -0.500000)" fill="white" fill-opacity="0"/>
		</clipPath>
	</defs>
	<rect id="MenuFilled" width="35.000000" height="35.000000" transform="translate(0.000000 -0.500000)" fill="#FFFFFF" fill-opacity="0"/>
	<g clip-path="url(#clip2_6759)">
		<path id="Vector" d="M5.83 25.75L29.16 25.75C29.97 25.75 30.62 25.09 30.62 24.29C30.62 23.48 29.97 22.83 29.16 22.83L5.83 22.83C5.02 22.83 4.37 23.48 4.37 24.29C4.37 25.09 5.02 25.75 5.83 25.75ZM5.83 18.45L29.16 18.45C29.97 18.45 30.62 17.8 30.62 17C30.62 16.19 29.97 15.54 29.16 15.54L5.83 15.54C5.02 15.54 4.37 16.19 4.37 17C4.37 17.8 5.02 18.45 5.83 18.45ZM5.83 8.25C5.02 8.25 4.37 8.9 4.37 9.7C4.37 10.51 5.02 11.16 5.83 11.16L29.16 11.16C29.97 11.16 30.62 10.51 30.62 9.7C30.62 8.9 29.97 8.25 29.16 8.25L5.83 8.25Z" fill="#0B457F" fill-opacity="1.000000" fill-rule="evenodd"/>
	</g>
</svg>
